<svg xmlns="http://www.w3.org/2000/svg" viewBox="0 0 800 800" width="1024" height="1024"><polygon points="400.00,311.31 394.93,310.93 390.20,309.80 386.14,308.00 383.03,305.66 381.07,302.93 380.40,300.00 381.07,297.07 383.03,294.34 386.14,292.00 390.20,290.20 394.93,289.07 400.00,288.69 400.00,388.69 394.93,389.07 390.20,390.20 386.14,392.00 383.03,394.34 381.07,397.07 380.40,400.00 381.07,402.93 383.03,405.66 386.14,408.00 390.20,409.80 394.93,410.93 400.00,411.31" fill="#91653B" opacity="1.0" /><polygon points="413.86,308.00 409.80,309.80 405.07,310.93 400.00,311.31 394.93,310.93 390.20,309.80 386.14,308.00 383.03,305.66 381.07,302.93 380.40,300.00 381.07,297.07 383.03,294.34 386.14,292.00 390.20,290.20 394.93,289.07 400.00,288.69 405.07,289.07 409.80,290.20 413.86,292.00 416.97,294.34 418.93,297.07 419.60,300.00 418.93,302.93 416.97,305.66" fill="#C69C6D" opacity="1.0" /><polygon points="278.76,340.00 400.00,410.00 400.00,220.00" fill="#6B7A56" opacity="1.0" /><polygon points="400.00,410.00 521.24,340.00 400.00,220.00" fill="#455333" opacity="1.0" /><polygon points="313.40,280.00 400.00,330.00 400.00,180.00" fill="#6B7A56" opacity="1.0" /><polygon points="400.00,330.00 486.60,280.00 400.00,180.00" fill="#455333" opacity="1.0" /><polygon points="348.04,220.00 400.00,250.00 400.00,140.00" fill="#6B7A56" opacity="1.0" /><polygon points="400.00,250.00 451.96,220.00 400.00,140.00" fill="#455333" opacity="1.0" /></svg>